# xmcd
#
# Track frame offsets:
#	150
#	16715
#	31305
#	44927
#	62215
#	75587
#	95220
#	112990
#	121675
#	148030
#	165770
#	182937
#	197850
#
# Disc length: 3224 seconds
#
# Revision: 1
# Processed by: cddbd v1.5.1PL2 Copyright (c) Steve Scherf et al.
# Submitted via: audiograbber 1.80
#
DISCID=ad0c960d
DTITLE=RattleSnakin'Daddies - Snakeblues
DYEAR=1900
DGENRE=
TTITLE0=Motherless Children
TTITLE1=The Sky Is Cryin'
TTITLE2=My Creole Belle
TTITLE3=Come On In My Kitchen
TTITLE4=Two Times
TTITLE5=Early Morning Blues
TTITLE6=Mississippi Blues
TTITLE7=A Little Bit Of Blake
TTITLE8=Hard Time Killin' Floor
TTITLE9=Gravel Road Blues
TTITLE10=Albatross
TTITLE11=Walters Boggie
TTITLE12=Chump Man Blues
EXTD=
EXTT0=
EXTT1=
EXTT2=
EXTT3=
EXTT4=
EXTT5=
EXTT6=
EXTT7=
EXTT8=
EXTT9=
EXTT10=
EXTT11=
EXTT12=
PLAYORDER=
